<svg width="32" height="32" viewBox="0 0 32 32" fill="none" xmlns="http://www.w3.org/2000/svg">
<circle cx="16" cy="16" r="16" fill="#535C67"/>
<g clip-path="url(#clip0_2740_56)">
<path d="M12.2898 22.8696H9.26359V12.9568H12.4214V22.8696H12.2898ZM10.8425 11.6525C10.3571 11.6425 9.89441 11.4469 9.55112 11.1066C9.20783 10.7663 9.01052 10.3076 9.00044 9.82647C8.99505 9.58521 9.03901 9.34537 9.12968 9.12141C9.22034 8.89745 9.35583 8.69401 9.52796 8.52337C9.7001 8.35273 9.90532 8.21843 10.1312 8.12855C10.3572 8.03867 10.5991 7.99509 10.8425 8.00044C11.0859 7.99509 11.3278 8.03867 11.5537 8.12855C11.7797 8.21843 11.9849 8.35273 12.157 8.52337C12.3292 8.69401 12.4646 8.89745 12.5553 9.12141C12.646 9.34537 12.6899 9.58521 12.6845 9.82647C12.631 10.2925 12.4198 10.7267 12.0852 11.0584C11.7507 11.39 11.3126 11.5995 10.8425 11.6525ZM24 22.8696H20.8422V18.0436C20.8422 16.8697 20.8422 15.435 19.2633 15.435C17.6844 15.435 17.4212 16.7393 17.4212 18.0436V23H14.2634V12.9568H17.2897V14.2611C17.5843 13.7651 18.0091 13.3576 18.5188 13.082C19.0286 12.8064 19.6042 12.673 20.1843 12.696C23.3421 12.696 23.8684 14.7828 23.8684 17.3915V22.8696H24Z" fill="white"/>
</g>
<defs>
<clipPath id="clip0_2740_56">
<rect width="16" height="16" fill="white" transform="translate(8 8)"/>
</clipPath>
</defs>
</svg>
