<svg width="16" height="16" viewBox="0 0 16 16" fill="none" xmlns="http://www.w3.org/2000/svg">
<path d="M15.086 10.4L11.949 9.00801C11.6387 8.87074 11.2918 8.83965 10.962 8.91956C10.6322 8.99947 10.338 9.18592 10.125 9.45001L9.17799 10.635C7.64333 9.65871 6.3417 8.35742 5.36499 6.82301L6.54899 5.87701C6.81401 5.66422 7.00124 5.36978 7.08154 5.03953C7.16184 4.70927 7.13071 4.36174 6.99299 4.05101L5.59999 0.914014C5.45201 0.580821 5.19055 0.310982 4.86218 0.15257C4.53382 -0.00584243 4.15988 -0.0425403 3.80699 0.0490142L1.15499 0.738014C0.789118 0.833593 0.471003 1.06003 0.260902 1.37445C0.0508015 1.68886 -0.0366933 2.06941 0.0149909 2.44401C0.506106 5.86123 2.09094 9.02741 4.53219 11.4685C6.97344 13.9095 10.1397 15.4942 13.557 15.985C13.6272 15.9949 13.6981 16 13.769 16C14.1104 15.9998 14.4422 15.8864 14.7123 15.6776C14.9824 15.4688 15.1757 15.1764 15.262 14.846L15.95 12.193C16.0429 11.8402 16.0069 11.4659 15.8485 11.1372C15.6902 10.8086 15.4198 10.5472 15.086 10.4Z" fill="#091625"/>
</svg>
