<svg width="32" height="32" viewBox="0 0 32 32" fill="none" xmlns="http://www.w3.org/2000/svg">
<circle cx="16" cy="16" r="16" fill="#535C67"/>
<g clip-path="url(#clip0_2740_61)">
<path d="M23.8 12.8C23.6 11.5 23 10.6 21.6 10.4C19.4 10 16 10 16 10C16 10 12.6 10 10.4 10.4C9 10.6 8.3 11.5 8.2 12.8C8 14.1 8 16 8 16C8 16 8 17.9 8.2 19.2C8.4 20.5 9 21.4 10.4 21.6C12.6 22 16 22 16 22C16 22 19.4 22 21.6 21.6C23 21.3 23.6 20.5 23.8 19.2C24 17.9 24 16 24 16C24 16 24 14.1 23.8 12.8ZM14 19V13L19 16L14 19Z" fill="white"/>
</g>
<defs>
<clipPath id="clip0_2740_61">
<rect width="16" height="16" fill="white" transform="translate(8 8)"/>
</clipPath>
</defs>
</svg>
